<svg width="24" height="24" viewBox="0 0 24 24" fill="none" xmlns="http://www.w3.org/2000/svg">
<path d="M4.5 17.25H19.5V3H6C5.60218 3 5.22064 3.15804 4.93934 3.43934C4.65804 3.72064 4.5 4.10218 4.5 4.5V17.25ZM6 1.5H20.25C20.4489 1.5 20.6397 1.57902 20.7803 1.71967C20.921 1.86032 21 2.05109 21 2.25V18C21 18.1989 20.921 18.3897 20.7803 18.5303C20.6397 18.671 20.4489 18.75 20.25 18.75H3.75L3 20.0985V4.5C3 3.70435 3.31607 2.94129 3.87868 2.37868C4.44129 1.81607 5.20435 1.5 6 1.5Z" fill="currentColor"/>
<path d="M5.625 18.75C5.32663 18.75 5.04048 18.8685 4.8295 19.0795C4.61853 19.2905 4.5 19.5766 4.5 19.875C4.5 20.1734 4.61853 20.4595 4.8295 20.6705C5.04048 20.8815 5.32663 21 5.625 21H19.5V18.75H5.625ZM5.625 17.25H21V21C21 21.3978 20.842 21.7794 20.5607 22.0607C20.2794 22.342 19.8978 22.5 19.5 22.5H5.625C4.92881 22.5 4.26113 22.2234 3.76884 21.7312C3.27656 21.2389 3 20.5712 3 19.875C3 19.1788 3.27656 18.5111 3.76884 18.0188C4.26113 17.5266 4.92881 17.25 5.625 17.25ZM9 3V8.88L11.25 7.08L13.5 8.88V3H9ZM7.5 1.5H15V10.44C14.9998 10.5811 14.9598 10.7193 14.8846 10.8387C14.8093 10.9581 14.7019 11.0539 14.5747 11.115C14.4475 11.1761 14.3056 11.2001 14.1654 11.1841C14.0252 11.1682 13.8923 11.1131 13.782 11.025L11.25 9L8.718 11.025C8.60772 11.1131 8.47483 11.1682 8.3346 11.1841C8.19438 11.2001 8.0525 11.1761 7.92529 11.115C7.79807 11.0539 7.69068 10.9581 7.61545 10.8387C7.54022 10.7193 7.5002 10.5811 7.5 10.44V1.5Z" fill="currentColor"/>
</svg>
