<svg width="24" height="24" viewBox="0 0 24 24" fill="none" xmlns="http://www.w3.org/2000/svg">
<path d="M21.225 16.6851C20.3497 15.6209 19.1512 14.1134 19.1512 12.5751V7.67762C19.1512 3.45887 15.996 0.026123 11.9632 0.026123C7.92973 0.026123 4.79922 3.45887 4.79922 7.67762V12.5751C4.79922 14.0871 3.49872 15.5159 2.67447 16.6251C1.93272 17.6211 1.34697 18.4086 1.74297 19.1954C2.09022 19.8876 2.96097 19.9761 3.68022 19.9761H7.97773C7.97922 22.1841 9.76947 23.9744 11.9775 23.9744C14.1855 23.9744 15.9772 22.1849 15.978 19.9761H20.376C20.8335 19.9761 21.903 19.9761 22.2712 19.1976C22.6425 18.4101 22.0485 17.6864 21.225 16.6851ZM11.9767 22.4031C10.6357 22.4031 9.54747 21.3171 9.54597 19.9769H14.4075C14.4052 21.3171 13.3185 22.4031 11.9767 22.4031ZM20.376 18.3794H3.67947C3.56472 18.3794 3.46872 18.3756 3.38997 18.3704C3.54447 18.1311 3.77097 17.8251 3.95622 17.5769C4.86972 16.3491 6.39747 14.6151 6.39747 12.5751V7.67762C6.39747 4.33862 8.81247 1.62287 11.9647 1.62287C15.117 1.62287 17.556 4.33937 17.556 7.67762V12.5751C17.556 14.6849 18.9645 16.4481 19.9927 17.6991C20.166 17.9099 20.373 18.1619 20.5342 18.3779C20.4862 18.3794 20.4337 18.3801 20.3775 18.3801L20.376 18.3794Z" fill="currentColor"/>
</svg>
