<svg width="24" height="24" viewBox="0 0 24 24" fill="none" xmlns="http://www.w3.org/2000/svg">
<path d="M17 3.25H7C5.74071 3.25159 4.53345 3.75254 3.643 4.643C2.75254 5.53345 2.25159 6.74071 2.25 8V21C2.25013 21.1482 2.29419 21.2931 2.37661 21.4163C2.45903 21.5395 2.57611 21.6356 2.71308 21.6923C2.85004 21.749 3.00074 21.7638 3.14614 21.735C3.29154 21.7061 3.42511 21.6348 3.53 21.53L5.944 19.116C6.06008 18.9996 6.19804 18.9074 6.34993 18.8446C6.50182 18.7818 6.66464 18.7496 6.829 18.75H17C18.2593 18.7484 19.4666 18.2475 20.357 17.357C21.2475 16.4666 21.7484 15.2593 21.75 14V8C21.7484 6.74071 21.2475 5.53345 20.357 4.643C19.4666 3.75254 18.2593 3.25159 17 3.25ZM20.25 14C20.2489 14.8616 19.9062 15.6877 19.2969 16.2969C18.6877 16.9062 17.8616 17.2489 17 17.25H6.829C6.46759 17.2489 6.10956 17.3196 5.77568 17.458C5.44179 17.5963 5.13871 17.7996 4.884 18.056L3.75 19.189V8C3.75106 7.13837 4.09381 6.31234 4.70307 5.70307C5.31234 5.09381 6.13837 4.75106 7 4.75H17C17.8616 4.75106 18.6877 5.09381 19.2969 5.70307C19.9062 6.31234 20.2489 7.13837 20.25 8V14ZM9 11C9 11.1978 8.94135 11.3911 8.83147 11.5556C8.72159 11.72 8.56541 11.8482 8.38268 11.9239C8.19996 11.9996 7.99889 12.0194 7.80491 11.9808C7.61093 11.9422 7.43275 11.847 7.29289 11.7071C7.15304 11.5673 7.0578 11.3891 7.01921 11.1951C6.98063 11.0011 7.00043 10.8 7.07612 10.6173C7.15181 10.4346 7.27998 10.2784 7.44443 10.1685C7.60888 10.0586 7.80222 10 8 10C8.26522 10 8.51957 10.1054 8.70711 10.2929C8.89464 10.4804 9 10.7348 9 11ZM13 11C13 11.1978 12.9414 11.3911 12.8315 11.5556C12.7216 11.72 12.5654 11.8482 12.3827 11.9239C12.2 11.9996 11.9989 12.0194 11.8049 11.9808C11.6109 11.9422 11.4327 11.847 11.2929 11.7071C11.153 11.5673 11.0578 11.3891 11.0192 11.1951C10.9806 11.0011 11.0004 10.8 11.0761 10.6173C11.1518 10.4346 11.28 10.2784 11.4444 10.1685C11.6089 10.0586 11.8022 10 12 10C12.2652 10 12.5196 10.1054 12.7071 10.2929C12.8946 10.4804 13 10.7348 13 11ZM17 11C17 11.1978 16.9414 11.3911 16.8315 11.5556C16.7216 11.72 16.5654 11.8482 16.3827 11.9239C16.2 11.9996 15.9989 12.0194 15.8049 11.9808C15.6109 11.9422 15.4327 11.847 15.2929 11.7071C15.153 11.5673 15.0578 11.3891 15.0192 11.1951C14.9806 11.0011 15.0004 10.8 15.0761 10.6173C15.1518 10.4346 15.28 10.2784 15.4444 10.1685C15.6089 10.0586 15.8022 10 16 10C16.2652 10 16.5196 10.1054 16.7071 10.2929C16.8946 10.4804 17 10.7348 17 11Z" fill="currentColor"/>
</svg>
