<svg width="32" height="32" viewBox="0 0 32 32" fill="none" xmlns="http://www.w3.org/2000/svg">
<path d="M30 16C30 12.287 28.525 8.72601 25.8995 6.1005C23.274 3.475 19.713 2 16 2C12.4747 1.99674 9.07793 3.32358 6.48821 5.71548C3.89848 8.10737 2.30646 11.3882 2.03015 14.9027C1.75385 18.4172 2.81359 21.9065 4.99771 24.6737C7.18182 27.4409 10.3295 29.2823 13.812 29.83V20.046H10.26V16H13.814V12.916C13.814 9.408 15.904 7.468 19.102 7.468C20.634 7.468 22.236 7.742 22.236 7.742V11.188H20.47C18.73 11.188 18.19 12.268 18.19 13.374V16H22.072L21.452 20.046H18.188V29.83C21.481 29.3085 24.4799 27.6291 26.6452 25.0939C28.8105 22.5587 30.0001 19.334 30 16Z" fill="#1877F2"/>
<path d="M21.45 20.046L22.07 16H18.188V13.374C18.188 12.268 18.728 11.188 20.468 11.188H22.234V7.74C22.234 7.74 20.632 7.466 19.1 7.466C15.9 7.466 13.812 9.406 13.812 12.914V16H10.26V20.046H13.814V29.83C15.2638 30.0582 16.7403 30.0582 18.19 29.83V20.046H21.45Z" fill="white"/>
</svg>
