<svg width="32" height="32" viewBox="0 0 32 32" fill="none" xmlns="http://www.w3.org/2000/svg">
<path d="M29.8 16.322C29.8 15.37 29.722 14.414 29.558 13.478H16.278V18.868H23.882C23.7251 19.7306 23.3948 20.5523 22.9111 21.2835C22.4274 22.0147 21.8004 22.6402 21.068 23.122V26.622H25.606C28.27 24.182 29.8 20.582 29.8 16.322Z" fill="#4285F4"/>
<path d="M16.28 30C20.076 30 23.278 28.76 25.61 26.62L21.074 23.122C19.812 23.976 18.182 24.46 16.284 24.46C12.612 24.46 9.49795 21.996 8.37995 18.684H3.69995V22.29C4.87915 24.6125 6.67912 26.5625 8.89989 27.9236C11.1207 29.2847 13.6753 30.0034 16.28 30Z" fill="#34A853"/>
<path d="M8.37406 18.684C7.78429 16.946 7.78429 15.062 8.37406 13.324V9.718H3.69806C2.71335 11.6671 2.20032 13.8203 2.20032 16.004C2.20032 18.1877 2.71335 20.3409 3.69806 22.29L8.37406 18.684Z" fill="#FBBC04"/>
<path d="M16.28 7.54C18.2852 7.50749 20.2235 8.26128 21.68 9.64L25.7 5.642C23.1451 3.26212 19.7713 1.95845 16.28 2.002C13.6746 1.9987 11.1193 2.71816 8.89841 4.08037C6.67749 5.44257 4.87796 7.39413 3.69995 9.718L8.37195 13.32C9.48395 10.004 12.604 7.54 16.276 7.54H16.28Z" fill="#EA4335"/>
</svg>
