<svg width="120" height="120" viewBox="0 0 120 120" fill="none" xmlns="http://www.w3.org/2000/svg">
<g clip-path="url(#clip0_1133_1483)">
<mask id="mask0_1133_1483" style="mask-type:luminance" maskUnits="userSpaceOnUse" x="0" y="0" width="120" height="120">
<path d="M120 0H0V120H120V0Z" fill="white"/>
</mask>
<g mask="url(#mask0_1133_1483)">
<path d="M61.1234 23.0583C81.8727 23.0583 98.7195 39.9052 98.7195 60.6544C98.7195 81.4037 81.8727 98.2505 61.1234 98.2505C40.3742 98.2505 23.5273 81.4037 23.5273 60.6544C23.5273 39.9052 40.3742 23.0583 61.1234 23.0583Z" fill="#3ABC5E"/>
<path d="M41.9136 64.3023L56.3452 76.7102L82.1046 46.9101" stroke="white" stroke-width="5.70856" stroke-linecap="round"/>
<mask id="mask1_1133_1483" style="mask-type:luminance" maskUnits="userSpaceOnUse" x="67" y="9" width="52" height="52">
<path d="M67.5681 35.6956L92.7079 9.92755L118.476 35.0673L93.3361 60.8354L67.5681 35.6956Z" fill="white"/>
</mask>
<g mask="url(#mask1_1133_1483)">
<g opacity="0.781107">
<path d="M93.6818 30.0647C94.7841 28.9349 96.5963 28.9126 97.726 30.0148C98.8558 31.117 98.8782 32.9292 97.7759 34.059C96.6737 35.1888 94.8615 35.2111 93.7317 34.1089C92.602 33.0067 92.5796 31.1945 93.6818 30.0647Z" fill="white"/>
</g>
</g>
<mask id="mask2_1133_1483" style="mask-type:luminance" maskUnits="userSpaceOnUse" x="69" y="20" width="31" height="31">
<path d="M69.1804 43.1985L76.4089 20.313L99.2944 27.5415L92.0659 50.4271L69.1804 43.1985Z" fill="white"/>
</mask>
<g mask="url(#mask2_1133_1483)">
<g opacity="0.781107">
<path d="M83.034 32.0071C83.3509 31.0037 84.4229 30.4463 85.4263 30.7633C86.4297 31.0802 86.9871 32.1522 86.6701 33.1556C86.3532 34.1589 85.2812 34.7163 84.2778 34.3994C83.2745 34.0825 82.7171 33.0105 83.034 32.0071Z" fill="white"/>
</g>
</g>
<mask id="mask3_1133_1483" style="mask-type:luminance" maskUnits="userSpaceOnUse" x="78" y="29" width="32" height="31">
<path d="M78.7649 36.7839L101.578 29.3289L109.033 52.1417L86.2199 59.5967L78.7649 36.7839Z" fill="white"/>
</mask>
<g mask="url(#mask3_1133_1483)">
<g opacity="0.781107">
<path d="M95.9313 41.5258C96.9315 41.1989 98.009 41.7456 98.3358 42.7458C98.6627 43.746 98.116 44.8235 97.1158 45.1504C96.1156 45.4772 95.0381 44.9305 94.7113 43.9303C94.3844 42.9301 94.9311 41.8527 95.9313 41.5258Z" fill="white"/>
</g>
</g>
</g>
</g>
<defs>
<clipPath id="clip0_1133_1483">
<rect width="120" height="120" fill="white"/>
</clipPath>
</defs>
</svg>
