<svg width="150" height="150" viewBox="0 0 150 150" fill="none" xmlns="http://www.w3.org/2000/svg">
<path fill-rule="evenodd" clip-rule="evenodd" d="M75 150C116.421 150 150 116.421 150 75C150 33.5786 116.421 0 75 0C56.4163 0 49.3523 22.2897 36.25 33.4835C20.1485 47.2396 0 52.1623 0 75C0 116.421 33.5786 150 75 150Z" fill="white" fill-opacity="0.06"/>
<path fill-rule="evenodd" clip-rule="evenodd" d="M75.5 132C107.256 132 133 106.256 133 74.5C133 42.7436 107.256 17 75.5 17C61.2525 17 55.8368 34.0888 45.7917 42.6707C33.4472 53.217 18 56.9911 18 74.5C18 106.256 43.7436 132 75.5 132Z" fill="white" fill-opacity="0.06"/>
<g clip-path="url(#clip0_4870_2775)">
<path d="M53.424 51L51 53.424L55.2702 60.8086L58.0394 60.4025L74.9428 77.3077L73.5009 78.6923C72.7625 79.4308 72.7625 80.5495 73.5009 81.288L74.2505 82.0394C74.9889 82.7778 76.1188 82.7778 76.6726 82.0394L78.8658 84.2308C78.6812 85.3385 78.8658 86.6548 79.7889 87.5778L89.7692 97.5009C91.8 99.5317 95.1231 99.5317 97.1538 97.5009C99.5538 95.2855 99.5317 91.9735 97.5009 89.9428L87.5778 79.9606C86.6548 79.0375 85.3385 78.6683 84.2308 79.0375L81.8068 76.8462C82.3606 76.1077 82.3606 74.9778 81.8068 74.4222L81.1145 73.7317C80.9466 73.5567 80.7451 73.4174 80.5221 73.3223C80.2991 73.2271 80.0591 73.1781 79.8166 73.1781C79.5741 73.1781 79.3342 73.2271 79.1111 73.3223C78.8881 73.4174 78.6866 73.5567 78.5188 73.7317L77.3077 74.9428L60.4043 58.0394L60.8068 55.2702L53.424 51ZM89.424 51.0572C85.7815 50.7545 80.952 53.1692 78.6923 55.2683C75.912 58.0486 76.3662 61.6837 78.576 65.1932L74.6548 69.1163L77.424 72.2308C78.9009 70.9385 81.0794 70.9385 82.5563 72.2308L83.3077 72.9803L83.4812 73.1538L85.0966 71.5385C88.4345 73.5009 91.9089 73.7834 94.5582 71.1342C97.1428 68.7342 99.9452 62.8154 98.6529 59.3077L93.4615 64.6726C92.7231 65.4111 91.6043 65.4111 90.8658 64.6726L85.4991 59.3077C85.3241 59.1399 85.1848 58.9384 85.0897 58.7153C84.9945 58.4923 84.9455 58.2523 84.9455 58.0098C84.9455 57.7674 84.9945 57.5274 85.0897 57.3044C85.1848 57.0813 85.3241 56.8798 85.4991 56.712L90.8677 51.3471C90.4062 51.1846 89.9446 51.1015 89.424 51.0572ZM69.1163 74.0769L62.4222 80.7692C61.7027 80.61 60.9676 80.5326 60.2308 80.5385C55.0615 80.5385 51 84.6 51 89.7692C51 94.9385 55.0615 99 60.2308 99C65.4 99 69.4615 94.9385 69.4615 89.7692C69.4615 88.8222 69.312 87.912 69.0572 87.0572L72.9803 83.1342L72.4043 82.3846C70.9274 80.9077 70.9385 78.6702 72.2308 77.1914L69.1163 74.0769ZM83.424 82.5009C83.6548 82.5009 83.8726 82.5452 84.0572 82.7317L94.9625 93.6351C95.3317 94.0043 95.3317 94.5914 94.9625 94.9606C94.5932 95.3298 94.0025 95.3298 93.6332 94.9606L82.7317 84.0572C82.3625 83.688 82.3625 83.1009 82.7317 82.7317C82.9163 82.5471 83.1932 82.5009 83.424 82.5009ZM61.5009 84.9785L65.0197 88.4991L63.7495 93.2862L58.9625 94.5563L55.4418 91.0357L56.712 86.2486L61.5009 84.9785Z" fill="white"/>
</g>
<defs>
<clipPath id="clip0_4870_2775">
<rect width="48" height="48" fill="white" transform="translate(51 51)"/>
</clipPath>
</defs>
</svg>
