<svg width="12" height="12" viewBox="0 0 12 12" fill="none" xmlns="http://www.w3.org/2000/svg">
<path fill-rule="evenodd" clip-rule="evenodd" d="M7.709 2.82154C7.56766 2.59594 7.29895 2.48463 7.03945 2.54421L6.14006 2.75076C6.04801 2.7719 5.95236 2.7719 5.86031 2.75076L4.96087 2.54421C4.70141 2.48463 4.43268 2.59594 4.29134 2.82154L3.8014 3.60357C3.75126 3.68362 3.68362 3.75125 3.60358 3.8014L2.82154 4.29134C2.59594 4.43268 2.48463 4.7014 2.54422 4.96087L2.75076 5.8603C2.7719 5.95235 2.7719 6.048 2.75076 6.14005L2.54422 7.0395C2.48463 7.29895 2.59594 7.56765 2.82154 7.709L3.60358 8.19895C3.68362 8.2491 3.75126 8.3167 3.8014 8.39675L4.29134 9.1788C4.43268 9.4044 4.70141 9.5157 4.96087 9.45615L5.86031 9.2496C5.95236 9.22845 6.04801 9.22845 6.14006 9.2496L7.03945 9.45615C7.29895 9.5157 7.56766 9.4044 7.709 9.1788L8.19896 8.39675C8.2491 8.31675 8.3167 8.2491 8.39675 8.19895L9.1788 7.709C9.40441 7.56765 9.5157 7.29895 9.4561 7.0395L9.2496 6.14005C9.22845 6.048 9.22845 5.95235 9.2496 5.8603L9.4561 4.96087C9.5157 4.7014 9.40441 4.43268 9.1788 4.29134L8.39675 3.8014C8.3167 3.75125 8.2491 3.68362 8.19896 3.60357L7.709 2.82154ZM7.45765 4.88496C7.52785 4.76608 7.48841 4.61278 7.3695 4.54257C7.25061 4.47236 7.09731 4.51182 7.0271 4.63071L5.72016 6.84375L4.93066 6.0877C4.83094 5.9922 4.67269 5.9956 4.57719 6.0953C4.48169 6.19505 4.48512 6.3533 4.58484 6.4488L5.60216 7.423C5.65726 7.47585 5.73351 7.50055 5.80916 7.49015C5.88476 7.4797 5.95151 7.43535 5.99031 7.3696L7.45765 4.88496Z" fill="currentColor"/>
</svg>
